<svg xmlns="http://www.w3.org/2000/svg" width="64" height="64" viewBox="0 0 64 64">
  <path fill="#059669" fill-rule="evenodd" d="M7.01 0H56.99A7.01 7.01 0 0 1 64 7.01V56.99A7.01 7.01 0 0 1 56.99 64H7.01A7.01 7.01 0 0 1 0 56.99V7.01A7.01 7.01 0 0 1 7.01 0ZM31.97 50.39Q26.98 50.39 23.31 48.13Q19.64 45.88 17.65 41.73Q15.66 37.59 15.66 31.93Q15.66 26.27 17.65 22.2Q19.64 18.12 23.31 15.87Q26.98 13.61 31.97 13.61Q37.02 13.61 40.69 15.87Q44.36 18.12 46.35 22.2Q48.34 26.27 48.34 31.93Q48.34 37.59 46.35 41.73Q44.36 45.88 40.69 48.13Q37.02 50.39 31.97 50.39ZM31.97 43.45Q35.4 43.45 37.36 41.33Q39.31 39.21 39.31 35.23V28.7Q39.31 24.72 37.36 22.64Q35.4 20.55 31.97 20.55Q28.67 20.55 26.68 22.64Q24.69 24.72 24.69 28.7V35.23Q24.69 39.21 26.68 41.33Q28.67 43.45 31.97 43.45Z"/>
</svg>
