<svg xmlns="http://www.w3.org/2000/svg" width="187" height="95" viewBox="0 0 187 95">
  <path fill="#ffffff" fill-rule="evenodd" d="M10.4 0H176.6A10.4 10.4 0 0 1 187 10.4V84.6A10.4 10.4 0 0 1 176.6 95H10.4A10.4 10.4 0 0 1 0 84.6V10.4A10.4 10.4 0 0 1 10.4 0ZM38.5 68.8Q31.1 68.8 25.7 65.5Q20.2 62.1 17.2 56Q14.3 49.8 14.3 41.4Q14.3 33 17.2 27Q20.2 20.9 25.7 17.5Q31.1 14.2 38.5 14.2Q46 14.2 51.5 17.5Q56.9 20.9 59.9 27Q62.8 33 62.8 41.4Q62.8 49.8 59.9 56Q56.9 62.1 51.5 65.5Q46 68.8 38.5 68.8ZM38.5 58.5Q43.6 58.5 46.5 55.4Q49.4 52.2 49.4 46.3V36.6Q49.4 30.7 46.5 27.6Q43.6 24.5 38.5 24.5Q33.6 24.5 30.7 27.6Q27.7 30.7 27.7 36.6V46.3Q27.7 52.2 30.7 55.4Q33.6 58.5 38.5 58.5ZM74.1 87.6V15.4H86.9V24H87.3Q88.7 19.5 92.7 16.8Q96.6 14.2 101.7 14.2Q108.4 14.2 112.9 17.4Q117.4 20.6 119.8 26.7Q122.2 32.7 122.2 41.4Q122.2 50.1 119.8 56.3Q117.4 62.4 112.9 65.6Q108.4 68.8 101.7 68.8Q96.6 68.8 92.7 66.1Q88.8 63.4 87.3 58.9H86.9V87.6ZM97.6 58.2Q102.6 58.2 105.7 54.9Q108.8 51.5 108.8 46V37Q108.8 31.4 105.7 28Q102.6 24.7 97.6 24.7Q94.6 24.7 92.2 25.7Q89.7 26.8 88.3 28.7Q86.9 30.6 86.9 33.1V49.7Q86.9 52.4 88.3 54.3Q89.7 56.2 92.2 57.2Q94.6 58.2 97.6 58.2ZM151.2 68.8Q143.7 68.8 138.6 66.3Q133.5 63.7 129.6 59.2L137.4 51.6Q140.3 54.9 143.8 56.8Q147.2 58.7 151.7 58.7Q156.3 58.7 158.4 57.1Q160.4 55.5 160.4 52.7Q160.4 50.4 158.9 49Q157.5 47.7 154 47.2L148.8 46.5Q143.2 45.8 139.3 43.9Q135.4 42 133.4 38.7Q131.4 35.4 131.4 30.7Q131.4 23.1 136.9 18.6Q142.3 14.2 151.2 14.2Q156.3 14.2 159.9 15.2Q163.6 16.1 166.4 18Q169.2 19.8 171.6 22.4L164.1 29.9Q161.8 27.5 158.6 25.9Q155.4 24.3 151.6 24.3Q147.6 24.3 145.6 25.7Q143.7 27.2 143.7 29.7Q143.7 32.3 145.2 33.6Q146.8 35 150.5 35.6L155.8 36.3Q164.4 37.5 168.6 41.4Q172.7 45.2 172.7 51.7Q172.7 56.7 170.1 60.6Q167.4 64.5 162.6 66.6Q157.7 68.8 151.2 68.8Z"/>
</svg>
