<svg xmlns="http://www.w3.org/2000/svg" width="328" height="105" viewBox="0 0 328 105">
  <path fill="#e5e7eb" d="M35.8 74V65.4H35.3Q33.5 70 29.7 72.6Q25.9 75.2 20.7 75.2Q14.2 75.2 9.6 72Q4.9 68.7 2.5 62.6Q0 56.5 0 48Q0 39.4 2.5 33.3Q4.9 27.3 9.6 24Q14.2 20.8 20.7 20.8Q25.9 20.8 29.8 23.3Q33.7 25.9 35.3 30.6H35.8V0H46.7V74ZM24 66Q27.3 66 30 64.8Q32.6 63.7 34.2 61.7Q35.8 59.6 35.8 56.6V39Q35.8 36.3 34.2 34.3Q32.6 32.3 30 31.2Q27.3 30.1 24 30.1Q18.4 30.1 15 33.8Q11.5 37.5 11.5 43.5V52.5Q11.5 58.5 15 62.2Q18.4 66 24 66ZM80.4 74H73.5Q67.9 74 65.1 71Q62.3 68.1 62.3 63.1V0H73.2V65.1H80.4ZM114.2 74H104.7Q99.1 74 96.2 71Q93.2 67.9 93.2 62.6V30.9H85.1V22H89.5Q92.2 22 93.2 20.8Q94.3 19.6 94.3 16.9V7.8H104.1V22H115V30.9H104.1V65.1H114.2Z"/>
  <path fill="#047857" fill-rule="evenodd" d="M151.4 9.8H317.6A10.4 10.4 0 0 1 328 20.2V94.4A10.4 10.4 0 0 1 317.6 104.8H151.4A10.4 10.4 0 0 1 141 94.4V20.2A10.4 10.4 0 0 1 151.4 9.8ZM179.5 78.6Q172.1 78.6 166.7 75.2Q161.2 71.9 158.2 65.8Q155.3 59.6 155.3 51.2Q155.3 42.8 158.2 36.7Q161.2 30.7 166.7 27.3Q172.1 24 179.5 24Q187 24 192.4 27.3Q197.9 30.7 200.9 36.7Q203.8 42.8 203.8 51.2Q203.8 59.6 200.9 65.8Q197.9 71.9 192.4 75.2Q187 78.6 179.5 78.6ZM179.5 68.3Q184.6 68.3 187.5 65.2Q190.4 62 190.4 56.1V46.4Q190.4 40.5 187.5 37.4Q184.6 34.3 179.5 34.3Q174.6 34.3 171.7 37.4Q168.7 40.5 168.7 46.4V56.1Q168.7 62 171.7 65.2Q174.6 68.3 179.5 68.3ZM215.1 97.4V25.2H227.9V33.8H228.3Q229.7 29.3 233.7 26.6Q237.6 24 242.7 24Q249.4 24 253.9 27.2Q258.4 30.4 260.8 36.4Q263.2 42.5 263.2 51.2Q263.2 59.9 260.8 66Q258.4 72.2 253.9 75.4Q249.4 78.6 242.7 78.6Q237.6 78.6 233.7 75.9Q229.8 73.2 228.3 68.7H227.9V97.4ZM238.6 68Q243.6 68 246.7 64.6Q249.8 61.3 249.8 55.8V46.8Q249.8 41.2 246.7 37.8Q243.6 34.5 238.6 34.5Q235.6 34.5 233.2 35.5Q230.7 36.6 229.3 38.5Q227.9 40.4 227.9 42.9V59.5Q227.9 62.2 229.3 64.1Q230.7 66 233.2 67Q235.6 68 238.6 68ZM292.2 78.6Q284.7 78.6 279.6 76.1Q274.5 73.5 270.6 69L278.4 61.4Q281.3 64.7 284.8 66.6Q288.2 68.5 292.7 68.5Q297.3 68.5 299.4 66.9Q301.4 65.3 301.4 62.5Q301.4 60.2 299.9 58.8Q298.5 57.5 295 57L289.8 56.3Q284.2 55.6 280.3 53.7Q276.4 51.8 274.4 48.5Q272.4 45.2 272.4 40.5Q272.4 32.9 277.9 28.4Q283.3 24 292.2 24Q297.3 24 300.9 24.9Q304.6 25.9 307.4 27.7Q310.2 29.6 312.6 32.2L305.1 39.7Q302.8 37.3 299.6 35.7Q296.4 34.1 292.6 34.1Q288.6 34.1 286.6 35.5Q284.7 37 284.7 39.5Q284.7 42.1 286.2 43.4Q287.8 44.8 291.5 45.4L296.8 46.1Q305.4 47.3 309.5 51.2Q313.7 55 313.7 61.5Q313.7 66.5 311 70.4Q308.4 74.3 303.5 76.5Q298.7 78.6 292.2 78.6Z"/>
</svg>
